<svg width="22" height="17" viewBox="0 0 22 17" fill="none" xmlns="http://www.w3.org/2000/svg">
<path fill-rule="evenodd" clip-rule="evenodd" d="M1.1 2.24074H20.9C21.5072 2.24074 22 1.73884 22 1.12037C22 0.501896 21.5072 0 20.9 0H1.1C0.492807 3.66133e-05 0 0.501932 0 1.1204C0 1.73884 0.492807 2.24074 1.1 2.24074ZM11.6895 14.6667H1.1C0.492807 14.6667 0 15.1686 0 15.787C0 16.4055 0.492807 16.9074 1.1 16.9074H11.6895C12.2967 16.9074 12.7895 16.4055 12.7895 15.787C12.7895 15.1686 12.2967 14.6667 11.6895 14.6667ZM1.1 7.33331H20.9C21.5072 7.33331 22 7.83528 22 8.45372C22 9.07216 21.5072 9.57409 20.9 9.57409H1.1C0.492807 9.57409 0 9.07219 0 8.45372C0 7.83525 0.492807 7.33331 1.1 7.33331Z" fill="#08233D"/>
</svg>
