<svg width="36" height="40" viewBox="0 0 36 40" fill="none" xmlns="http://www.w3.org/2000/svg">
<path d="M6.45565 5.81987C6.56831 6.19221 6.93745 6.42495 7.32206 6.36573L7.99089 6.26299L8.46823 7.84745C8.57003 8.18542 8.88018 8.40354 9.21596 8.40354C9.29057 8.40354 9.36651 8.39268 9.44167 8.3701C9.85479 8.24557 10.0888 7.80979 9.96432 7.39667L9.29112 5.16229C9.17885 4.78956 8.80917 4.55596 8.4244 4.61549L7.75471 4.71838L7.18706 2.84268C7.06206 2.42971 6.62573 2.19627 6.213 2.3212C5.80003 2.4462 5.56659 2.88229 5.69151 3.29526L6.45565 5.81987Z" fill="#FF8A73"/>
<path d="M3.34927 9.80238L3.89614 9.4016L5.0545 10.5882C5.20755 10.745 5.41052 10.8238 5.61364 10.8238C5.81044 10.8238 6.00739 10.75 6.15926 10.6016C6.46801 10.3002 6.47395 9.80558 6.17255 9.49676L4.54044 7.8248C4.26864 7.54644 3.83348 7.51042 3.51966 7.74035L2.97302 8.14097L1.60653 6.73995C1.3052 6.43112 0.810671 6.42495 0.501765 6.72612C0.192859 7.02738 0.186687 7.52199 0.488015 7.83097L2.32825 9.71769C2.59997 9.99629 3.03536 10.0325 3.34927 9.80238Z" fill="#FF8A73"/>
<path d="M13.0706 3.99274L13.6789 4.28914L13.1699 5.86492C13.0372 6.27555 13.2626 6.71594 13.6732 6.84852C13.7529 6.8743 13.8339 6.88656 13.9135 6.88656C14.2433 6.88656 14.5499 6.67602 14.6568 6.34524L15.3743 4.12406C15.4939 3.75383 15.3229 3.35203 14.9731 3.18164L14.3653 2.88547L14.9688 1.02211C15.1018 0.611642 14.8768 0.171095 14.4663 0.0381259C14.0557 -0.0946085 13.6152 0.130157 13.4823 0.540704L12.6697 3.04977C12.5496 3.42008 12.7206 3.82227 13.0706 3.99274Z" fill="#FF8A73"/>
<path d="M16.6526 35.8167H21.0993C22.2468 35.8167 23.1804 34.8841 23.1804 33.7378C23.1804 31.3642 21.2495 29.4332 18.876 29.4332C16.5025 29.4332 14.5715 31.3643 14.5715 33.7378C14.5715 34.8841 15.505 35.8167 16.6526 35.8167ZM18.8759 30.9957C20.3878 30.9957 21.6179 32.2258 21.6179 33.7378C21.6179 34.0177 21.3804 34.2542 21.0992 34.2542H16.6525C16.3714 34.2542 16.1339 34.0177 16.1339 33.7378C16.134 32.2258 17.364 30.9957 18.8759 30.9957Z" fill="#0E1D2C"/>
<path d="M26.1143 28.7061C26.3954 28.7061 26.6672 28.5539 26.8068 28.2878C27.0072 27.9056 26.8601 27.4334 26.4779 27.2329L24.7449 26.3236L26.4779 25.4143C26.8601 25.2139 27.0072 24.7416 26.8068 24.3595C26.6063 23.9774 26.134 23.8304 25.752 24.0307L22.7005 25.6317C22.4433 25.7667 22.2822 26.0331 22.2822 26.3235C22.2822 26.614 22.4433 26.8804 22.7005 27.0153L25.752 28.6164C25.8679 28.6773 25.9919 28.7061 26.1143 28.7061Z" fill="#0E1D2C"/>
<path d="M10.9426 28.2875C11.0823 28.5538 11.3539 28.7061 11.6352 28.7061C11.7575 28.7061 11.8815 28.6773 11.9973 28.6166L15.0511 27.0155C15.3083 26.8806 15.4695 26.6141 15.4695 26.3236C15.4695 26.0331 15.3083 25.7666 15.0511 25.6318L11.9973 24.0307C11.6152 23.8304 11.1429 23.9776 10.9426 24.3598C10.7423 24.742 10.8897 25.2142 11.2718 25.4145L13.0058 26.3237L11.2718 27.2329C10.8897 27.4331 10.7423 27.9053 10.9426 28.2875Z" fill="#0E1D2C"/>
<path d="M27.1396 34.8305C26.7537 34.6374 26.2844 34.7938 26.0915 35.1799L26.0893 35.1844C25.8963 35.5702 26.0538 36.0374 26.4397 36.2303C26.5514 36.2861 26.67 36.3125 26.787 36.3125C27.0745 36.3125 27.3519 36.1531 27.489 35.8787C27.6819 35.4927 27.5255 35.0234 27.1396 34.8305Z" fill="#0E1D2C"/>
<path d="M35.1037 22.3831C34.6055 21.6714 33.8543 21.2795 32.9886 21.2795H32.0665L31.688 17.7855C31.5594 16.6167 31.646 16.5317 32.0108 16.1733C32.1586 16.0278 32.3262 15.8817 32.5036 15.727C33.4415 14.909 34.7259 13.7888 34.8955 11.0407C34.9108 10.7914 34.8061 10.5498 34.6137 10.3906C34.4212 10.2315 34.1643 10.174 33.9223 10.2357C33.5356 10.3345 33.1808 10.4301 32.8678 10.5145C30.5847 11.1297 30.0425 11.2759 27.8912 9.94892C24.3292 7.75252 21.1349 6.99064 18.1258 7.62009C15.5707 8.15447 13.7157 9.57291 12.2251 10.7127C12.1133 10.7981 12.0047 10.8813 11.8986 10.9617C10.6829 10.6326 9.45232 10.791 8.39256 11.4217C7.1142 12.1824 6.21107 13.576 5.97654 15.1499C5.63381 17.4628 5.60717 18.3633 5.60514 21.2796H4.76092C3.89568 21.2796 3.14498 21.6715 2.64709 22.3831C2.24084 22.9637 2.01709 23.7438 2.01709 24.5797C2.01709 26.4878 3.20459 28.5157 5.40529 28.5157H5.83701C6.82381 32.953 10.8441 37.5958 15.4901 39.3201C16.738 39.7841 17.8138 40.0002 18.8758 40.0002C19.9389 40.0002 21.0142 39.784 22.258 39.3206C22.9687 39.0581 23.6921 38.7139 24.4081 38.2978C24.7812 38.081 24.9078 37.6028 24.691 37.2297C24.4742 36.8567 23.9961 36.7301 23.623 36.9467C22.9844 37.3178 22.343 37.6235 21.7144 37.8557C20.6487 38.2528 19.7467 38.4377 18.8758 38.4377C18.0055 38.4377 17.1026 38.2528 16.0341 37.8554C11.3108 36.1024 7.16748 30.7965 7.16748 26.501V22.3937C8.88381 20.7692 10.1241 20.2133 12.0157 19.6819C13.0019 19.4057 13.4667 19.5438 14.3925 19.8188C14.6256 19.8881 14.89 19.9666 15.1861 20.0442C21.5385 21.7038 24.0776 21.9988 29.1362 22.5864C29.5958 22.6398 30.0772 22.6957 30.584 22.7553V26.501C30.584 26.849 30.556 27.2075 30.5012 27.5737C30.4975 27.5913 30.4951 27.6094 30.4926 27.6274C30.2511 29.17 29.5351 30.8465 28.4162 32.4575C28.1701 32.8119 28.2579 33.2987 28.6122 33.5449C28.7481 33.6392 28.9035 33.6845 29.0572 33.6845C29.3045 33.6845 29.5479 33.5673 29.6996 33.3488C30.7997 31.7649 31.5548 30.1033 31.9115 28.5157H32.3465C34.5469 28.5157 35.7344 26.4883 35.7344 24.5806C35.7343 23.7442 35.5104 22.9638 35.1037 22.3831ZM5.40529 26.9531C4.06576 26.9531 3.57951 25.5336 3.57951 24.5796C3.57951 24.0686 3.70623 23.5945 3.92725 23.2788C4.13287 22.9849 4.40561 22.842 4.76084 22.842H5.60498V26.5008C5.60498 26.6507 5.60936 26.8016 5.61748 26.9531H5.40529ZM29.3165 21.0341C24.3305 20.4549 21.8276 20.1642 15.5819 18.5324C15.3108 18.4613 15.0702 18.3899 14.8375 18.3208C14.2021 18.132 13.6501 17.9681 12.9795 17.9681C12.5754 17.9681 12.1282 18.0277 11.5939 18.1773C9.89795 18.6537 8.62131 19.1706 7.17006 20.3199C7.18029 18.1731 7.23467 17.3207 7.52233 15.3795C7.68834 14.2653 8.31248 13.2878 9.19186 12.7644C9.73647 12.4403 10.6274 12.1421 11.7792 12.5616C12.0255 12.6513 12.3003 12.6114 12.511 12.4557C12.7256 12.2971 12.9437 12.1303 13.1745 11.9538C15.9987 9.79431 19.8667 6.8365 27.0712 11.2788C29.7605 12.9376 30.8573 12.6742 33.1787 12.0489C32.869 13.3352 32.1887 13.9285 31.4767 14.5494C31.2896 14.7125 31.0962 14.8812 30.9154 15.0592C30.0214 15.9374 29.9912 16.6492 30.1347 17.9549L30.483 21.1699C30.0785 21.1227 29.6905 21.0776 29.3165 21.0341ZM32.3464 26.9531H32.1336C32.1419 26.801 32.1466 26.6502 32.1466 26.5008V22.842H32.9886C33.3446 22.842 33.6178 22.985 33.8237 23.2792C34.0449 23.5952 34.1718 24.0694 34.1718 24.5805C34.1718 25.5342 33.6857 26.9531 32.3464 26.9531Z" fill="#0E1D2C"/>
</svg>
